<?xml version="1.0" encoding="utf-8"?>
<svg version="1.1" xmlns:xlink="http://www.w3.org/1999/xlink" width="32px" height="32px" xmlns="http://www.w3.org/2000/svg">
  <defs>
    <pattern id="BGPattern" patternUnits="userSpaceOnUse" alignment="0 0" imageRepeat="None" />
    <mask fill="white" id="Clip56">
      <path d="M 9.785714285714286 1.2678571428571423  C 11.761904761904763 0.42261904761904745  13.833333333333334 0  16 0  C 18.166666666666668 0  20.23809523809524 0.42261904761904745  22.214285714285715 1.2678571428571423  C 24.190476190476193 2.1130952380952372  25.892857142857142 3.25  27.321428571428573 4.678571428571427  C 28.750000000000004 6.107142857142858  29.886904761904766 7.809523809523807  30.732142857142858 9.785714285714285  C 31.577380952380956 11.76190476190476  32 13.833333333333332  32 16  C 32 18.154761904761905  31.580357142857142 20.220238095238095  30.741071428571427 22.19642857142857  C 29.901785714285715 24.17261904761905  28.767857142857142 25.875  27.339285714285715 27.30357142857143  C 25.910714285714285 28.732142857142858  24.208333333333336 29.872023809523807  22.232142857142858 30.723214285714285  C 20.255952380952383 31.574404761904763  18.178571428571427 32  16 32  C 13.821428571428571 32  11.74404761904762 31.577380952380953  9.767857142857142 30.732142857142858  C 7.791666666666667 29.886904761904763  6.092261904761905 28.747023809523807  4.669642857142857 27.3125  C 3.2470238095238093 25.87797619047619  2.113095238095238 24.175595238095237  1.2678571428571428 22.205357142857142  C 0.42261904761904756 20.235119047619044  0 18.166666666666664  0 16  C 0 13.833333333333332  0.42261904761904756 11.76190476190476  1.2678571428571428 9.785714285714285  C 2.113095238095238 7.809523809523807  3.25 6.107142857142858  4.678571428571429 4.678571428571427  C 6.107142857142857 3.25  7.80952380952381 2.1130952380952372  9.785714285714286 1.2678571428571423  Z M 21.589285714285715 18.285714285714285  C 24.446428571428573 18.285714285714285  26.267857142857142 20.232142857142858  27.053571428571427 24.125  C 28.827380952380956 21.68452380952381  29.714285714285715 18.976190476190474  29.714285714285715 16  C 29.714285714285715 14.142857142857142  29.351190476190478 12.369047619047617  28.625 10.678571428571427  C 27.898809523809526 8.988095238095237  26.922619047619055 7.5297619047619015  25.696428571428573 6.303571428571427  C 24.4702380952381 5.0773809523809526  23.011904761904763 4.1011904761904745  21.321428571428573 3.375  C 19.630952380952383 2.648809523809522  17.857142857142858 2.2857142857142847  16 2.2857142857142847  C 14.142857142857142 2.2857142857142847  12.36904761904762 2.648809523809522  10.678571428571429 3.375  C 8.988095238095239 4.1011904761904745  7.529761904761906 5.0773809523809526  6.303571428571429 6.303571428571427  C 5.077380952380953 7.5297619047619015  4.101190476190476 8.988095238095237  3.375 10.678571428571427  C 2.648809523809524 12.369047619047617  2.2857142857142856 14.142857142857142  2.2857142857142856 16  C 2.2857142857142856 18.976190476190474  3.172619047619048 21.68452380952381  4.946428571428571 24.125  C 5.732142857142857 20.232142857142858  7.553571428571429 18.285714285714285  10.410714285714286 18.285714285714285  C 11.970238095238097 19.80952380952381  13.833333333333334 20.57142857142857  16 20.57142857142857  C 18.166666666666668 20.57142857142857  20.029761904761905 19.80952380952381  21.589285714285715 18.285714285714285  Z M 20.848214285714285 17.419642857142858  C 22.1875 16.080357142857142  22.857142857142858 14.464285714285715  22.857142857142858 12.571428571428573  C 22.857142857142858 10.678571428571427  22.1875 9.0625  20.848214285714285 7.723214285714285  C 19.508928571428573 6.383928571428573  17.892857142857142 5.714285714285715  16 5.714285714285715  C 14.107142857142858 5.714285714285715  12.491071428571429 6.383928571428573  11.151785714285714 7.723214285714285  C 9.8125 9.0625  9.142857142857142 10.678571428571427  9.142857142857142 12.571428571428573  C 9.142857142857142 14.464285714285715  9.8125 16.080357142857142  11.151785714285714 17.419642857142858  C 12.491071428571429 18.75892857142857  14.107142857142858 19.42857142857143  16 19.42857142857143  C 17.892857142857142 19.42857142857143  19.508928571428573 18.75892857142857  20.848214285714285 17.419642857142858  Z " fill-rule="evenodd" />
    </mask>
  </defs>
  <g transform="matrix(1 0 0 1 -760 -23 )">
    <path d="M 9.785714285714286 1.2678571428571423  C 11.761904761904763 0.42261904761904745  13.833333333333334 0  16 0  C 18.166666666666668 0  20.23809523809524 0.42261904761904745  22.214285714285715 1.2678571428571423  C 24.190476190476193 2.1130952380952372  25.892857142857142 3.25  27.321428571428573 4.678571428571427  C 28.750000000000004 6.107142857142858  29.886904761904766 7.809523809523807  30.732142857142858 9.785714285714285  C 31.577380952380956 11.76190476190476  32 13.833333333333332  32 16  C 32 18.154761904761905  31.580357142857142 20.220238095238095  30.741071428571427 22.19642857142857  C 29.901785714285715 24.17261904761905  28.767857142857142 25.875  27.339285714285715 27.30357142857143  C 25.910714285714285 28.732142857142858  24.208333333333336 29.872023809523807  22.232142857142858 30.723214285714285  C 20.255952380952383 31.574404761904763  18.178571428571427 32  16 32  C 13.821428571428571 32  11.74404761904762 31.577380952380953  9.767857142857142 30.732142857142858  C 7.791666666666667 29.886904761904763  6.092261904761905 28.747023809523807  4.669642857142857 27.3125  C 3.2470238095238093 25.87797619047619  2.113095238095238 24.175595238095237  1.2678571428571428 22.205357142857142  C 0.42261904761904756 20.235119047619044  0 18.166666666666664  0 16  C 0 13.833333333333332  0.42261904761904756 11.76190476190476  1.2678571428571428 9.785714285714285  C 2.113095238095238 7.809523809523807  3.25 6.107142857142858  4.678571428571429 4.678571428571427  C 6.107142857142857 3.25  7.80952380952381 2.1130952380952372  9.785714285714286 1.2678571428571423  Z M 21.589285714285715 18.285714285714285  C 24.446428571428573 18.285714285714285  26.267857142857142 20.232142857142858  27.053571428571427 24.125  C 28.827380952380956 21.68452380952381  29.714285714285715 18.976190476190474  29.714285714285715 16  C 29.714285714285715 14.142857142857142  29.351190476190478 12.369047619047617  28.625 10.678571428571427  C 27.898809523809526 8.988095238095237  26.922619047619055 7.5297619047619015  25.696428571428573 6.303571428571427  C 24.4702380952381 5.0773809523809526  23.011904761904763 4.1011904761904745  21.321428571428573 3.375  C 19.630952380952383 2.648809523809522  17.857142857142858 2.2857142857142847  16 2.2857142857142847  C 14.142857142857142 2.2857142857142847  12.36904761904762 2.648809523809522  10.678571428571429 3.375  C 8.988095238095239 4.1011904761904745  7.529761904761906 5.0773809523809526  6.303571428571429 6.303571428571427  C 5.077380952380953 7.5297619047619015  4.101190476190476 8.988095238095237  3.375 10.678571428571427  C 2.648809523809524 12.369047619047617  2.2857142857142856 14.142857142857142  2.2857142857142856 16  C 2.2857142857142856 18.976190476190474  3.172619047619048 21.68452380952381  4.946428571428571 24.125  C 5.732142857142857 20.232142857142858  7.553571428571429 18.285714285714285  10.410714285714286 18.285714285714285  C 11.970238095238097 19.80952380952381  13.833333333333334 20.57142857142857  16 20.57142857142857  C 18.166666666666668 20.57142857142857  20.029761904761905 19.80952380952381  21.589285714285715 18.285714285714285  Z M 20.848214285714285 17.419642857142858  C 22.1875 16.080357142857142  22.857142857142858 14.464285714285715  22.857142857142858 12.571428571428573  C 22.857142857142858 10.678571428571427  22.1875 9.0625  20.848214285714285 7.723214285714285  C 19.508928571428573 6.383928571428573  17.892857142857142 5.714285714285715  16 5.714285714285715  C 14.107142857142858 5.714285714285715  12.491071428571429 6.383928571428573  11.151785714285714 7.723214285714285  C 9.8125 9.0625  9.142857142857142 10.678571428571427  9.142857142857142 12.571428571428573  C 9.142857142857142 14.464285714285715  9.8125 16.080357142857142  11.151785714285714 17.419642857142858  C 12.491071428571429 18.75892857142857  14.107142857142858 19.42857142857143  16 19.42857142857143  C 17.892857142857142 19.42857142857143  19.508928571428573 18.75892857142857  20.848214285714285 17.419642857142858  Z " fill-rule="nonzero" fill="rgba(0, 0, 0, 1)" stroke="none" transform="matrix(1 0 0 1 760 23 )" class="fill" />
    <path d="M 9.785714285714286 1.2678571428571423  C 11.761904761904763 0.42261904761904745  13.833333333333334 0  16 0  C 18.166666666666668 0  20.23809523809524 0.42261904761904745  22.214285714285715 1.2678571428571423  C 24.190476190476193 2.1130952380952372  25.892857142857142 3.25  27.321428571428573 4.678571428571427  C 28.750000000000004 6.107142857142858  29.886904761904766 7.809523809523807  30.732142857142858 9.785714285714285  C 31.577380952380956 11.76190476190476  32 13.833333333333332  32 16  C 32 18.154761904761905  31.580357142857142 20.220238095238095  30.741071428571427 22.19642857142857  C 29.901785714285715 24.17261904761905  28.767857142857142 25.875  27.339285714285715 27.30357142857143  C 25.910714285714285 28.732142857142858  24.208333333333336 29.872023809523807  22.232142857142858 30.723214285714285  C 20.255952380952383 31.574404761904763  18.178571428571427 32  16 32  C 13.821428571428571 32  11.74404761904762 31.577380952380953  9.767857142857142 30.732142857142858  C 7.791666666666667 29.886904761904763  6.092261904761905 28.747023809523807  4.669642857142857 27.3125  C 3.2470238095238093 25.87797619047619  2.113095238095238 24.175595238095237  1.2678571428571428 22.205357142857142  C 0.42261904761904756 20.235119047619044  0 18.166666666666664  0 16  C 0 13.833333333333332  0.42261904761904756 11.76190476190476  1.2678571428571428 9.785714285714285  C 2.113095238095238 7.809523809523807  3.25 6.107142857142858  4.678571428571429 4.678571428571427  C 6.107142857142857 3.25  7.80952380952381 2.1130952380952372  9.785714285714286 1.2678571428571423  Z " stroke-width="0" stroke-dasharray="0" stroke="rgba(255, 255, 255, 0)" fill="none" transform="matrix(1 0 0 1 760 23 )" class="stroke" mask="url(#Clip56)" />
    <path d="M 21.589285714285715 18.285714285714285  C 24.446428571428573 18.285714285714285  26.267857142857142 20.232142857142858  27.053571428571427 24.125  C 28.827380952380956 21.68452380952381  29.714285714285715 18.976190476190474  29.714285714285715 16  C 29.714285714285715 14.142857142857142  29.351190476190478 12.369047619047617  28.625 10.678571428571427  C 27.898809523809526 8.988095238095237  26.922619047619055 7.5297619047619015  25.696428571428573 6.303571428571427  C 24.4702380952381 5.0773809523809526  23.011904761904763 4.1011904761904745  21.321428571428573 3.375  C 19.630952380952383 2.648809523809522  17.857142857142858 2.2857142857142847  16 2.2857142857142847  C 14.142857142857142 2.2857142857142847  12.36904761904762 2.648809523809522  10.678571428571429 3.375  C 8.988095238095239 4.1011904761904745  7.529761904761906 5.0773809523809526  6.303571428571429 6.303571428571427  C 5.077380952380953 7.5297619047619015  4.101190476190476 8.988095238095237  3.375 10.678571428571427  C 2.648809523809524 12.369047619047617  2.2857142857142856 14.142857142857142  2.2857142857142856 16  C 2.2857142857142856 18.976190476190474  3.172619047619048 21.68452380952381  4.946428571428571 24.125  C 5.732142857142857 20.232142857142858  7.553571428571429 18.285714285714285  10.410714285714286 18.285714285714285  C 11.970238095238097 19.80952380952381  13.833333333333334 20.57142857142857  16 20.57142857142857  C 18.166666666666668 20.57142857142857  20.029761904761905 19.80952380952381  21.589285714285715 18.285714285714285  Z " stroke-width="0" stroke-dasharray="0" stroke="rgba(255, 255, 255, 0)" fill="none" transform="matrix(1 0 0 1 760 23 )" class="stroke" mask="url(#Clip56)" />
    <path d="M 20.848214285714285 17.419642857142858  C 22.1875 16.080357142857142  22.857142857142858 14.464285714285715  22.857142857142858 12.571428571428573  C 22.857142857142858 10.678571428571427  22.1875 9.0625  20.848214285714285 7.723214285714285  C 19.508928571428573 6.383928571428573  17.892857142857142 5.714285714285715  16 5.714285714285715  C 14.107142857142858 5.714285714285715  12.491071428571429 6.383928571428573  11.151785714285714 7.723214285714285  C 9.8125 9.0625  9.142857142857142 10.678571428571427  9.142857142857142 12.571428571428573  C 9.142857142857142 14.464285714285715  9.8125 16.080357142857142  11.151785714285714 17.419642857142858  C 12.491071428571429 18.75892857142857  14.107142857142858 19.42857142857143  16 19.42857142857143  C 17.892857142857142 19.42857142857143  19.508928571428573 18.75892857142857  20.848214285714285 17.419642857142858  Z " stroke-width="0" stroke-dasharray="0" stroke="rgba(255, 255, 255, 0)" fill="none" transform="matrix(1 0 0 1 760 23 )" class="stroke" mask="url(#Clip56)" />
  </g>
</svg>