<?xml version="1.0" encoding="utf-8"?>
<svg version="1.1" xmlns:xlink="http://www.w3.org/1999/xlink" width="39px" height="40px" xmlns="http://www.w3.org/2000/svg">
  <defs>
    <pattern id="BGPattern" patternUnits="userSpaceOnUse" alignment="0 0" imageRepeat="None" />
    <mask fill="white" id="Clip66">
      <path d="M 30.392578125 22.83854166666667  C 30.714192708333332 22.508680555555554  30.875 22.118055555555554  30.875 21.66666666666667  L 30.875 18.333333333333336  C 30.875 17.881944444444443  30.714192708333332 17.491319444444443  30.392578125 17.161458333333336  C 30.07096354166667 16.83159722222222  29.69010416666667 16.666666666666664  29.25 16.666666666666664  L 22.75 16.666666666666664  L 22.75 10  C 22.75 9.548611111111107  22.589192708333336 9.157986111111107  22.267578125 8.828125  C 21.945963541666668 8.49826388888889  21.565104166666668 8.333333333333336  21.125 8.333333333333336  L 17.875 8.333333333333336  C 17.434895833333336 8.333333333333336  17.054036458333336 8.49826388888889  16.732421875 8.828125  C 16.410807291666668 9.157986111111107  16.25 9.548611111111107  16.25 10  L 16.25 16.666666666666664  L 9.75 16.666666666666664  C 9.309895833333334 16.666666666666664  8.929036458333334 16.83159722222222  8.607421875 17.161458333333336  C 8.285807291666668 17.491319444444443  8.125 17.881944444444443  8.125 18.333333333333336  L 8.125 21.66666666666667  C 8.125 22.118055555555554  8.285807291666668 22.508680555555554  8.607421875 22.83854166666667  C 8.929036458333334 23.16840277777778  9.309895833333334 23.33333333333333  9.75 23.33333333333333  L 16.25 23.33333333333333  L 16.25 30  C 16.25 30.45138888888889  16.410807291666668 30.84201388888889  16.732421875 31.171875  C 17.054036458333336 31.50173611111111  17.434895833333336 31.666666666666664  17.875 31.666666666666664  L 21.125 31.666666666666664  C 21.565104166666668 31.666666666666664  21.945963541666668 31.50173611111111  22.267578125 31.171875  C 22.589192708333336 30.84201388888889  22.75 30.45138888888889  22.75 30  L 22.75 23.33333333333333  L 29.25 23.33333333333333  C 29.69010416666667 23.33333333333333  30.07096354166667 23.16840277777778  30.392578125 22.83854166666667  Z M 36.384765625 9.9609375  C 38.12825520833333 13.025173611111107  39 16.37152777777777  39 20  C 39 23.62847222222222  38.12825520833333 26.974826388888886  36.384765625 30.0390625  C 34.64127604166667 33.103298611111114  32.275716145833336 35.529513888888886  29.2880859375 37.317708333333336  C 26.30045572916667 39.10590277777778  23.037760416666668 40  19.5 40  C 15.962239583333334 40  12.699544270833334 39.10590277777778  9.7119140625 37.317708333333336  C 6.724283854166667 35.529513888888886  4.358723958333334 33.103298611111114  2.615234375 30.0390625  C 0.8717447916666665 26.974826388888886  0 23.62847222222222  0 20  C 0 16.37152777777777  0.8717447916666665 13.025173611111107  2.615234375 9.9609375  C 4.358723958333334 6.896701388888888  6.724283854166667 4.470486111111107  9.7119140625 2.682291666666665  C 12.699544270833334 0.8940972222222188  15.962239583333334 0  19.5 0  C 23.037760416666668 0  26.30045572916667 0.8940972222222188  29.2880859375 2.682291666666665  C 32.275716145833336 4.470486111111107  34.64127604166667 6.896701388888888  36.384765625 9.9609375  Z " fill-rule="evenodd" />
    </mask>
  </defs>
  <g transform="matrix(1 0 0 1 -778 -453 )">
    <path d="M 30.392578125 22.83854166666667  C 30.714192708333332 22.508680555555554  30.875 22.118055555555554  30.875 21.66666666666667  L 30.875 18.333333333333336  C 30.875 17.881944444444443  30.714192708333332 17.491319444444443  30.392578125 17.161458333333336  C 30.07096354166667 16.83159722222222  29.69010416666667 16.666666666666664  29.25 16.666666666666664  L 22.75 16.666666666666664  L 22.75 10  C 22.75 9.548611111111107  22.589192708333336 9.157986111111107  22.267578125 8.828125  C 21.945963541666668 8.49826388888889  21.565104166666668 8.333333333333336  21.125 8.333333333333336  L 17.875 8.333333333333336  C 17.434895833333336 8.333333333333336  17.054036458333336 8.49826388888889  16.732421875 8.828125  C 16.410807291666668 9.157986111111107  16.25 9.548611111111107  16.25 10  L 16.25 16.666666666666664  L 9.75 16.666666666666664  C 9.309895833333334 16.666666666666664  8.929036458333334 16.83159722222222  8.607421875 17.161458333333336  C 8.285807291666668 17.491319444444443  8.125 17.881944444444443  8.125 18.333333333333336  L 8.125 21.66666666666667  C 8.125 22.118055555555554  8.285807291666668 22.508680555555554  8.607421875 22.83854166666667  C 8.929036458333334 23.16840277777778  9.309895833333334 23.33333333333333  9.75 23.33333333333333  L 16.25 23.33333333333333  L 16.25 30  C 16.25 30.45138888888889  16.410807291666668 30.84201388888889  16.732421875 31.171875  C 17.054036458333336 31.50173611111111  17.434895833333336 31.666666666666664  17.875 31.666666666666664  L 21.125 31.666666666666664  C 21.565104166666668 31.666666666666664  21.945963541666668 31.50173611111111  22.267578125 31.171875  C 22.589192708333336 30.84201388888889  22.75 30.45138888888889  22.75 30  L 22.75 23.33333333333333  L 29.25 23.33333333333333  C 29.69010416666667 23.33333333333333  30.07096354166667 23.16840277777778  30.392578125 22.83854166666667  Z M 36.384765625 9.9609375  C 38.12825520833333 13.025173611111107  39 16.37152777777777  39 20  C 39 23.62847222222222  38.12825520833333 26.974826388888886  36.384765625 30.0390625  C 34.64127604166667 33.103298611111114  32.275716145833336 35.529513888888886  29.2880859375 37.317708333333336  C 26.30045572916667 39.10590277777778  23.037760416666668 40  19.5 40  C 15.962239583333334 40  12.699544270833334 39.10590277777778  9.7119140625 37.317708333333336  C 6.724283854166667 35.529513888888886  4.358723958333334 33.103298611111114  2.615234375 30.0390625  C 0.8717447916666665 26.974826388888886  0 23.62847222222222  0 20  C 0 16.37152777777777  0.8717447916666665 13.025173611111107  2.615234375 9.9609375  C 4.358723958333334 6.896701388888888  6.724283854166667 4.470486111111107  9.7119140625 2.682291666666665  C 12.699544270833334 0.8940972222222188  15.962239583333334 0  19.5 0  C 23.037760416666668 0  26.30045572916667 0.8940972222222188  29.2880859375 2.682291666666665  C 32.275716145833336 4.470486111111107  34.64127604166667 6.896701388888888  36.384765625 9.9609375  Z " fill-rule="nonzero" fill="rgba(0, 0, 0, 1)" stroke="none" transform="matrix(1 0 0 1 778 453 )" class="fill" />
    <path d="M 30.392578125 22.83854166666667  C 30.714192708333332 22.508680555555554  30.875 22.118055555555554  30.875 21.66666666666667  L 30.875 18.333333333333336  C 30.875 17.881944444444443  30.714192708333332 17.491319444444443  30.392578125 17.161458333333336  C 30.07096354166667 16.83159722222222  29.69010416666667 16.666666666666664  29.25 16.666666666666664  L 22.75 16.666666666666664  L 22.75 10  C 22.75 9.548611111111107  22.589192708333336 9.157986111111107  22.267578125 8.828125  C 21.945963541666668 8.49826388888889  21.565104166666668 8.333333333333336  21.125 8.333333333333336  L 17.875 8.333333333333336  C 17.434895833333336 8.333333333333336  17.054036458333336 8.49826388888889  16.732421875 8.828125  C 16.410807291666668 9.157986111111107  16.25 9.548611111111107  16.25 10  L 16.25 16.666666666666664  L 9.75 16.666666666666664  C 9.309895833333334 16.666666666666664  8.929036458333334 16.83159722222222  8.607421875 17.161458333333336  C 8.285807291666668 17.491319444444443  8.125 17.881944444444443  8.125 18.333333333333336  L 8.125 21.66666666666667  C 8.125 22.118055555555554  8.285807291666668 22.508680555555554  8.607421875 22.83854166666667  C 8.929036458333334 23.16840277777778  9.309895833333334 23.33333333333333  9.75 23.33333333333333  L 16.25 23.33333333333333  L 16.25 30  C 16.25 30.45138888888889  16.410807291666668 30.84201388888889  16.732421875 31.171875  C 17.054036458333336 31.50173611111111  17.434895833333336 31.666666666666664  17.875 31.666666666666664  L 21.125 31.666666666666664  C 21.565104166666668 31.666666666666664  21.945963541666668 31.50173611111111  22.267578125 31.171875  C 22.589192708333336 30.84201388888889  22.75 30.45138888888889  22.75 30  L 22.75 23.33333333333333  L 29.25 23.33333333333333  C 29.69010416666667 23.33333333333333  30.07096354166667 23.16840277777778  30.392578125 22.83854166666667  Z " stroke-width="0" stroke-dasharray="0" stroke="rgba(255, 255, 255, 0)" fill="none" transform="matrix(1 0 0 1 778 453 )" class="stroke" mask="url(#Clip66)" />
    <path d="M 36.384765625 9.9609375  C 38.12825520833333 13.025173611111107  39 16.37152777777777  39 20  C 39 23.62847222222222  38.12825520833333 26.974826388888886  36.384765625 30.0390625  C 34.64127604166667 33.103298611111114  32.275716145833336 35.529513888888886  29.2880859375 37.317708333333336  C 26.30045572916667 39.10590277777778  23.037760416666668 40  19.5 40  C 15.962239583333334 40  12.699544270833334 39.10590277777778  9.7119140625 37.317708333333336  C 6.724283854166667 35.529513888888886  4.358723958333334 33.103298611111114  2.615234375 30.0390625  C 0.8717447916666665 26.974826388888886  0 23.62847222222222  0 20  C 0 16.37152777777777  0.8717447916666665 13.025173611111107  2.615234375 9.9609375  C 4.358723958333334 6.896701388888888  6.724283854166667 4.470486111111107  9.7119140625 2.682291666666665  C 12.699544270833334 0.8940972222222188  15.962239583333334 0  19.5 0  C 23.037760416666668 0  26.30045572916667 0.8940972222222188  29.2880859375 2.682291666666665  C 32.275716145833336 4.470486111111107  34.64127604166667 6.896701388888888  36.384765625 9.9609375  Z " stroke-width="0" stroke-dasharray="0" stroke="rgba(255, 255, 255, 0)" fill="none" transform="matrix(1 0 0 1 778 453 )" class="stroke" mask="url(#Clip66)" />
  </g>
</svg>