<?xml version="1.0" encoding="utf-8"?>
<svg version="1.1" xmlns:xlink="http://www.w3.org/1999/xlink" width="30px" height="29px" xmlns="http://www.w3.org/2000/svg">
  <defs>
    <pattern id="BGPattern" patternUnits="userSpaceOnUse" alignment="0 0" imageRepeat="None" />
    <mask fill="white" id="Clip57">
      <path d="M 22.734375 26.335625  C 22.962740384615387 26.106041666666666  23.076923076923077 25.834166666666665  23.076923076923077 25.52  C 23.076923076923077 25.205833333333334  22.962740384615387 24.933958333333337  22.734375 24.704375  C 22.506009615384617 24.474791666666665  22.235576923076927 24.36  21.923076923076923 24.36  C 21.610576923076923 24.36  21.340144230769234 24.474791666666665  21.111778846153847 24.704375  C 20.883413461538463 24.933958333333337  20.76923076923077 25.205833333333334  20.76923076923077 25.52  C 20.76923076923077 25.834166666666665  20.883413461538463 26.106041666666666  21.111778846153847 26.335625  C 21.340144230769234 26.565208333333334  21.610576923076923 26.68  21.923076923076923 26.68  C 22.235576923076927 26.68  22.506009615384617 26.565208333333334  22.734375 26.335625  Z M 27.349759615384617 26.335625  C 27.578124999999996 26.106041666666666  27.692307692307693 25.834166666666665  27.692307692307693 25.52  C 27.692307692307693 25.205833333333334  27.578124999999996 24.933958333333337  27.349759615384617 24.704375  C 27.121394230769234 24.474791666666665  26.85096153846154 24.36  26.538461538461537 24.36  C 26.22596153846154 24.36  25.955528846153847 24.474791666666665  25.727163461538463 24.704375  C 25.49879807692308 24.933958333333337  25.384615384615383 25.205833333333334  25.384615384615383 25.52  C 25.384615384615383 25.834166666666665  25.49879807692308 26.106041666666666  25.727163461538463 26.335625  C 25.955528846153847 26.565208333333334  26.22596153846154 26.68  26.538461538461537 26.68  C 26.85096153846154 26.68  27.121394230769234 26.565208333333334  27.349759615384617 26.335625  Z M 29.495192307692307 20.2275  C 29.83173076923077 20.56583333333333  30 20.976666666666667  30 21.46  L 30 27.259999999999998  C 30 27.743333333333332  29.83173076923077 28.154166666666665  29.495192307692307 28.4925  C 29.15865384615385 28.830833333333334  28.750000000000004 29  28.26923076923077 29  L 1.7307692307692308 29  C 1.2500000000000002 29  0.841346153846154 28.830833333333334  0.5048076923076923 28.4925  C 0.16826923076923075 28.154166666666665  0 27.743333333333332  0 27.259999999999998  L 0 21.46  C 0 20.976666666666667  0.16826923076923075 20.56583333333333  0.5048076923076923 20.2275  C 0.841346153846154 19.889166666666668  1.2500000000000002 19.72  1.7307692307692308 19.72  L 9.429086538461538 19.72  C 9.681490384615385 20.39666666666667  10.105168269230768 20.952499999999997  10.700120192307692 21.387500000000003  C 11.295072115384615 21.822499999999998  11.959134615384617 22.04  12.692307692307692 22.04  L 17.307692307692307 22.04  C 18.040865384615387 22.04  18.704927884615383 21.822499999999998  19.299879807692307 21.387500000000003  C 19.89483173076923 20.952499999999997  20.318509615384617 20.39666666666667  20.570913461538463 19.72  L 28.26923076923077 19.72  C 28.750000000000004 19.72  29.15865384615385 19.889166666666668  29.495192307692307 20.2275  Z M 23.888221153846153 8.464375  C 24.26081730769231 8.826875  24.344951923076927 9.243749999999999  24.140625 9.715  C 23.93629807692308 10.19833333333333  23.58173076923077 10.44  23.076923076923077 10.44  L 18.461538461538463 10.44  L 18.461538461538463 18.56  C 18.461538461538463 18.874166666666664  18.34735576923077 19.146041666666665  18.118990384615383 19.375625000000003  C 17.890625000000004 19.605208333333334  17.620192307692307 19.72  17.307692307692307 19.72  L 12.692307692307692 19.72  C 12.379807692307693 19.72  12.109375000000002 19.605208333333334  11.881009615384615 19.375625000000003  C 11.652644230769232 19.146041666666665  11.538461538461538 18.874166666666664  11.538461538461538 18.56  L 11.538461538461538 10.44  L 6.923076923076923 10.44  C 6.418269230769231 10.44  6.063701923076924 10.19833333333333  5.859375 9.715  C 5.6550480769230775 9.243749999999999  5.7391826923076925 8.826875  6.111778846153846 8.464375  L 14.188701923076923 0.3443749999999991  C 14.405048076923077 0.11479166666666529  14.675480769230768 0  15 0  C 15.324519230769232 0  15.594951923076922 0.11479166666666529  15.811298076923078 0.3443749999999991  L 23.888221153846153 8.464375  Z " fill-rule="evenodd" />
    </mask>
  </defs>
  <g transform="matrix(1 0 0 1 -446 -536 )">
    <path d="M 22.734375 26.335625  C 22.962740384615387 26.106041666666666  23.076923076923077 25.834166666666665  23.076923076923077 25.52  C 23.076923076923077 25.205833333333334  22.962740384615387 24.933958333333337  22.734375 24.704375  C 22.506009615384617 24.474791666666665  22.235576923076927 24.36  21.923076923076923 24.36  C 21.610576923076923 24.36  21.340144230769234 24.474791666666665  21.111778846153847 24.704375  C 20.883413461538463 24.933958333333337  20.76923076923077 25.205833333333334  20.76923076923077 25.52  C 20.76923076923077 25.834166666666665  20.883413461538463 26.106041666666666  21.111778846153847 26.335625  C 21.340144230769234 26.565208333333334  21.610576923076923 26.68  21.923076923076923 26.68  C 22.235576923076927 26.68  22.506009615384617 26.565208333333334  22.734375 26.335625  Z M 27.349759615384617 26.335625  C 27.578124999999996 26.106041666666666  27.692307692307693 25.834166666666665  27.692307692307693 25.52  C 27.692307692307693 25.205833333333334  27.578124999999996 24.933958333333337  27.349759615384617 24.704375  C 27.121394230769234 24.474791666666665  26.85096153846154 24.36  26.538461538461537 24.36  C 26.22596153846154 24.36  25.955528846153847 24.474791666666665  25.727163461538463 24.704375  C 25.49879807692308 24.933958333333337  25.384615384615383 25.205833333333334  25.384615384615383 25.52  C 25.384615384615383 25.834166666666665  25.49879807692308 26.106041666666666  25.727163461538463 26.335625  C 25.955528846153847 26.565208333333334  26.22596153846154 26.68  26.538461538461537 26.68  C 26.85096153846154 26.68  27.121394230769234 26.565208333333334  27.349759615384617 26.335625  Z M 29.495192307692307 20.2275  C 29.83173076923077 20.56583333333333  30 20.976666666666667  30 21.46  L 30 27.259999999999998  C 30 27.743333333333332  29.83173076923077 28.154166666666665  29.495192307692307 28.4925  C 29.15865384615385 28.830833333333334  28.750000000000004 29  28.26923076923077 29  L 1.7307692307692308 29  C 1.2500000000000002 29  0.841346153846154 28.830833333333334  0.5048076923076923 28.4925  C 0.16826923076923075 28.154166666666665  0 27.743333333333332  0 27.259999999999998  L 0 21.46  C 0 20.976666666666667  0.16826923076923075 20.56583333333333  0.5048076923076923 20.2275  C 0.841346153846154 19.889166666666668  1.2500000000000002 19.72  1.7307692307692308 19.72  L 9.429086538461538 19.72  C 9.681490384615385 20.39666666666667  10.105168269230768 20.952499999999997  10.700120192307692 21.387500000000003  C 11.295072115384615 21.822499999999998  11.959134615384617 22.04  12.692307692307692 22.04  L 17.307692307692307 22.04  C 18.040865384615387 22.04  18.704927884615383 21.822499999999998  19.299879807692307 21.387500000000003  C 19.89483173076923 20.952499999999997  20.318509615384617 20.39666666666667  20.570913461538463 19.72  L 28.26923076923077 19.72  C 28.750000000000004 19.72  29.15865384615385 19.889166666666668  29.495192307692307 20.2275  Z M 23.888221153846153 8.464375  C 24.26081730769231 8.826875  24.344951923076927 9.243749999999999  24.140625 9.715  C 23.93629807692308 10.19833333333333  23.58173076923077 10.44  23.076923076923077 10.44  L 18.461538461538463 10.44  L 18.461538461538463 18.56  C 18.461538461538463 18.874166666666664  18.34735576923077 19.146041666666665  18.118990384615383 19.375625000000003  C 17.890625000000004 19.605208333333334  17.620192307692307 19.72  17.307692307692307 19.72  L 12.692307692307692 19.72  C 12.379807692307693 19.72  12.109375000000002 19.605208333333334  11.881009615384615 19.375625000000003  C 11.652644230769232 19.146041666666665  11.538461538461538 18.874166666666664  11.538461538461538 18.56  L 11.538461538461538 10.44  L 6.923076923076923 10.44  C 6.418269230769231 10.44  6.063701923076924 10.19833333333333  5.859375 9.715  C 5.6550480769230775 9.243749999999999  5.7391826923076925 8.826875  6.111778846153846 8.464375  L 14.188701923076923 0.3443749999999991  C 14.405048076923077 0.11479166666666529  14.675480769230768 0  15 0  C 15.324519230769232 0  15.594951923076922 0.11479166666666529  15.811298076923078 0.3443749999999991  L 23.888221153846153 8.464375  Z " fill-rule="nonzero" fill="rgba(0, 0, 0, 1)" stroke="none" transform="matrix(1 0 0 1 446 536 )" class="fill" />
    <path d="M 22.734375 26.335625  C 22.962740384615387 26.106041666666666  23.076923076923077 25.834166666666665  23.076923076923077 25.52  C 23.076923076923077 25.205833333333334  22.962740384615387 24.933958333333337  22.734375 24.704375  C 22.506009615384617 24.474791666666665  22.235576923076927 24.36  21.923076923076923 24.36  C 21.610576923076923 24.36  21.340144230769234 24.474791666666665  21.111778846153847 24.704375  C 20.883413461538463 24.933958333333337  20.76923076923077 25.205833333333334  20.76923076923077 25.52  C 20.76923076923077 25.834166666666665  20.883413461538463 26.106041666666666  21.111778846153847 26.335625  C 21.340144230769234 26.565208333333334  21.610576923076923 26.68  21.923076923076923 26.68  C 22.235576923076927 26.68  22.506009615384617 26.565208333333334  22.734375 26.335625  Z " stroke-width="0" stroke-dasharray="0" stroke="rgba(255, 255, 255, 0)" fill="none" transform="matrix(1 0 0 1 446 536 )" class="stroke" mask="url(#Clip57)" />
    <path d="M 27.349759615384617 26.335625  C 27.578124999999996 26.106041666666666  27.692307692307693 25.834166666666665  27.692307692307693 25.52  C 27.692307692307693 25.205833333333334  27.578124999999996 24.933958333333337  27.349759615384617 24.704375  C 27.121394230769234 24.474791666666665  26.85096153846154 24.36  26.538461538461537 24.36  C 26.22596153846154 24.36  25.955528846153847 24.474791666666665  25.727163461538463 24.704375  C 25.49879807692308 24.933958333333337  25.384615384615383 25.205833333333334  25.384615384615383 25.52  C 25.384615384615383 25.834166666666665  25.49879807692308 26.106041666666666  25.727163461538463 26.335625  C 25.955528846153847 26.565208333333334  26.22596153846154 26.68  26.538461538461537 26.68  C 26.85096153846154 26.68  27.121394230769234 26.565208333333334  27.349759615384617 26.335625  Z " stroke-width="0" stroke-dasharray="0" stroke="rgba(255, 255, 255, 0)" fill="none" transform="matrix(1 0 0 1 446 536 )" class="stroke" mask="url(#Clip57)" />
    <path d="M 29.495192307692307 20.2275  C 29.83173076923077 20.56583333333333  30 20.976666666666667  30 21.46  L 30 27.259999999999998  C 30 27.743333333333332  29.83173076923077 28.154166666666665  29.495192307692307 28.4925  C 29.15865384615385 28.830833333333334  28.750000000000004 29  28.26923076923077 29  L 1.7307692307692308 29  C 1.2500000000000002 29  0.841346153846154 28.830833333333334  0.5048076923076923 28.4925  C 0.16826923076923075 28.154166666666665  0 27.743333333333332  0 27.259999999999998  L 0 21.46  C 0 20.976666666666667  0.16826923076923075 20.56583333333333  0.5048076923076923 20.2275  C 0.841346153846154 19.889166666666668  1.2500000000000002 19.72  1.7307692307692308 19.72  L 9.429086538461538 19.72  C 9.681490384615385 20.39666666666667  10.105168269230768 20.952499999999997  10.700120192307692 21.387500000000003  C 11.295072115384615 21.822499999999998  11.959134615384617 22.04  12.692307692307692 22.04  L 17.307692307692307 22.04  C 18.040865384615387 22.04  18.704927884615383 21.822499999999998  19.299879807692307 21.387500000000003  C 19.89483173076923 20.952499999999997  20.318509615384617 20.39666666666667  20.570913461538463 19.72  L 28.26923076923077 19.72  C 28.750000000000004 19.72  29.15865384615385 19.889166666666668  29.495192307692307 20.2275  Z " stroke-width="0" stroke-dasharray="0" stroke="rgba(255, 255, 255, 0)" fill="none" transform="matrix(1 0 0 1 446 536 )" class="stroke" mask="url(#Clip57)" />
    <path d="M 23.888221153846153 8.464375  C 24.26081730769231 8.826875  24.344951923076927 9.243749999999999  24.140625 9.715  C 23.93629807692308 10.19833333333333  23.58173076923077 10.44  23.076923076923077 10.44  L 18.461538461538463 10.44  L 18.461538461538463 18.56  C 18.461538461538463 18.874166666666664  18.34735576923077 19.146041666666665  18.118990384615383 19.375625000000003  C 17.890625000000004 19.605208333333334  17.620192307692307 19.72  17.307692307692307 19.72  L 12.692307692307692 19.72  C 12.379807692307693 19.72  12.109375000000002 19.605208333333334  11.881009615384615 19.375625000000003  C 11.652644230769232 19.146041666666665  11.538461538461538 18.874166666666664  11.538461538461538 18.56  L 11.538461538461538 10.44  L 6.923076923076923 10.44  C 6.418269230769231 10.44  6.063701923076924 10.19833333333333  5.859375 9.715  C 5.6550480769230775 9.243749999999999  5.7391826923076925 8.826875  6.111778846153846 8.464375  L 14.188701923076923 0.3443749999999991  C 14.405048076923077 0.11479166666666529  14.675480769230768 0  15 0  C 15.324519230769232 0  15.594951923076922 0.11479166666666529  15.811298076923078 0.3443749999999991  L 23.888221153846153 8.464375  Z " stroke-width="0" stroke-dasharray="0" stroke="rgba(255, 255, 255, 0)" fill="none" transform="matrix(1 0 0 1 446 536 )" class="stroke" mask="url(#Clip57)" />
  </g>
</svg>