<?xml version="1.0" encoding="utf-8"?>
<svg version="1.1" xmlns:xlink="http://www.w3.org/1999/xlink" width="47px" height="47px" xmlns="http://www.w3.org/2000/svg">
  <defs>
    <pattern id="BGPattern" patternUnits="userSpaceOnUse" alignment="0 0" imageRepeat="None" />
    <mask fill="white" id="Clip58">
      <path d="M 14.372767857142858 1.862165178571428  C 17.27529761904762 0.6207217261904759  20.317708333333336 0  23.5 0  C 26.682291666666668 0  29.724702380952387 0.6207217261904759  32.627232142857146 1.862165178571428  C 35.52976190476191 3.1036086309523796  38.03013392857143 4.7734375  40.128348214285715 6.871651785714284  C 42.22656250000001 8.969866071428573  43.89639136904763 11.470238095238091  45.13783482142857 14.372767857142856  C 46.37927827380953 17.275297619047613  47 20.317708333333332  47 23.5  C 47 26.664806547619047  46.38364955357143 29.698474702380953  45.150948660714285 32.60100446428571  C 43.918247767857146 35.50353422619048  42.25279017857143 38.00390625  40.154575892857146 40.10212053571429  C 38.056361607142854 42.20033482142857  35.555989583333336 43.87453497023809  32.65345982142857 45.124720982142854  C 29.750930059523814 46.37490699404762  26.699776785714285 47  23.5 47  C 20.300223214285715 47  17.249069940476193 46.379278273809526  14.346540178571427 45.13783482142857  C 11.444010416666668 43.89639136904762  8.948009672619047 42.22219122023809  6.858537946428571 40.115234375  C 4.769066220238095 38.008277529761905  3.103608630952381 35.50790550595238  1.8621651785714284 32.61411830357143  C 0.620721726190476 29.72033110119047  0 26.682291666666664  0 23.5  C 0 20.317708333333332  0.620721726190476 17.275297619047613  1.8621651785714284 14.372767857142856  C 3.103608630952381 11.470238095238091  4.7734375 8.969866071428573  6.8716517857142865 6.871651785714284  C 8.969866071428571 4.7734375  11.470238095238097 3.1036086309523796  14.372767857142858 1.862165178571428  Z M 31.709263392857146 26.857142857142854  C 35.905691964285715 26.857142857142854  38.58091517857143 29.715959821428573  39.734933035714285 35.43359375  C 42.34021577380953 31.849144345238095  43.642857142857146 27.87127976190476  43.642857142857146 23.5  C 43.642857142857146 20.772321428571427  43.109561011904766 18.167038690476186  42.04296875 15.684151785714283  C 40.97637648809524 13.20126488095238  39.54259672619049 11.059337797619042  37.741629464285715 9.258370535714283  C 35.940662202380956 7.457403273809524  33.79873511904762 6.023623511904759  31.315848214285715 4.95703125  C 28.832961309523814 3.8904389880952355  26.227678571428573 3.357142857142856  23.5 3.357142857142856  C 20.772321428571427 3.357142857142856  18.167038690476193 3.8904389880952355  15.684151785714286 4.95703125  C 13.201264880952383 6.023623511904759  11.05933779761905 7.457403273809524  9.258370535714286 9.258370535714283  C 7.4574032738095255 11.059337797619042  6.023623511904762 13.20126488095238  4.95703125 15.684151785714283  C 3.8904389880952386 18.167038690476186  3.3571428571428568 20.772321428571427  3.3571428571428568 23.5  C 3.3571428571428568 27.87127976190476  4.659784226190476 31.849144345238095  7.2650669642857135 35.43359375  C 8.419084821428571 29.715959821428573  11.094308035714286 26.857142857142854  15.290736607142858 26.857142857142854  C 17.581287202380956 29.095238095238095  20.317708333333336 30.21428571428571  23.5 30.21428571428571  C 26.682291666666668 30.21428571428571  29.418712797619047 29.095238095238095  31.709263392857146 26.857142857142854  Z M 30.620814732142854 25.585100446428573  C 32.587890625 23.618024553571427  33.57142857142857 21.244419642857146  33.57142857142857 18.464285714285715  C 33.57142857142857 15.684151785714283  32.587890625 13.310546875  30.620814732142854 11.343470982142856  C 28.653738839285715 9.376395089285717  26.280133928571427 8.392857142857144  23.5 8.392857142857144  C 20.719866071428573 8.392857142857144  18.346261160714285 9.376395089285717  16.379185267857142 11.343470982142856  C 14.412109375 13.310546875  13.428571428571427 15.684151785714283  13.428571428571427 18.464285714285715  C 13.428571428571427 21.244419642857146  14.412109375 23.618024553571427  16.379185267857142 25.585100446428573  C 18.346261160714285 27.55217633928571  20.719866071428573 28.53571428571429  23.5 28.53571428571429  C 26.280133928571427 28.53571428571429  28.653738839285715 27.55217633928571  30.620814732142854 25.585100446428573  Z " fill-rule="evenodd" />
    </mask>
  </defs>
  <g transform="matrix(1 0 0 1 -305 -494 )">
    <path d="M 14.372767857142858 1.862165178571428  C 17.27529761904762 0.6207217261904759  20.317708333333336 0  23.5 0  C 26.682291666666668 0  29.724702380952387 0.6207217261904759  32.627232142857146 1.862165178571428  C 35.52976190476191 3.1036086309523796  38.03013392857143 4.7734375  40.128348214285715 6.871651785714284  C 42.22656250000001 8.969866071428573  43.89639136904763 11.470238095238091  45.13783482142857 14.372767857142856  C 46.37927827380953 17.275297619047613  47 20.317708333333332  47 23.5  C 47 26.664806547619047  46.38364955357143 29.698474702380953  45.150948660714285 32.60100446428571  C 43.918247767857146 35.50353422619048  42.25279017857143 38.00390625  40.154575892857146 40.10212053571429  C 38.056361607142854 42.20033482142857  35.555989583333336 43.87453497023809  32.65345982142857 45.124720982142854  C 29.750930059523814 46.37490699404762  26.699776785714285 47  23.5 47  C 20.300223214285715 47  17.249069940476193 46.379278273809526  14.346540178571427 45.13783482142857  C 11.444010416666668 43.89639136904762  8.948009672619047 42.22219122023809  6.858537946428571 40.115234375  C 4.769066220238095 38.008277529761905  3.103608630952381 35.50790550595238  1.8621651785714284 32.61411830357143  C 0.620721726190476 29.72033110119047  0 26.682291666666664  0 23.5  C 0 20.317708333333332  0.620721726190476 17.275297619047613  1.8621651785714284 14.372767857142856  C 3.103608630952381 11.470238095238091  4.7734375 8.969866071428573  6.8716517857142865 6.871651785714284  C 8.969866071428571 4.7734375  11.470238095238097 3.1036086309523796  14.372767857142858 1.862165178571428  Z M 31.709263392857146 26.857142857142854  C 35.905691964285715 26.857142857142854  38.58091517857143 29.715959821428573  39.734933035714285 35.43359375  C 42.34021577380953 31.849144345238095  43.642857142857146 27.87127976190476  43.642857142857146 23.5  C 43.642857142857146 20.772321428571427  43.109561011904766 18.167038690476186  42.04296875 15.684151785714283  C 40.97637648809524 13.20126488095238  39.54259672619049 11.059337797619042  37.741629464285715 9.258370535714283  C 35.940662202380956 7.457403273809524  33.79873511904762 6.023623511904759  31.315848214285715 4.95703125  C 28.832961309523814 3.8904389880952355  26.227678571428573 3.357142857142856  23.5 3.357142857142856  C 20.772321428571427 3.357142857142856  18.167038690476193 3.8904389880952355  15.684151785714286 4.95703125  C 13.201264880952383 6.023623511904759  11.05933779761905 7.457403273809524  9.258370535714286 9.258370535714283  C 7.4574032738095255 11.059337797619042  6.023623511904762 13.20126488095238  4.95703125 15.684151785714283  C 3.8904389880952386 18.167038690476186  3.3571428571428568 20.772321428571427  3.3571428571428568 23.5  C 3.3571428571428568 27.87127976190476  4.659784226190476 31.849144345238095  7.2650669642857135 35.43359375  C 8.419084821428571 29.715959821428573  11.094308035714286 26.857142857142854  15.290736607142858 26.857142857142854  C 17.581287202380956 29.095238095238095  20.317708333333336 30.21428571428571  23.5 30.21428571428571  C 26.682291666666668 30.21428571428571  29.418712797619047 29.095238095238095  31.709263392857146 26.857142857142854  Z M 30.620814732142854 25.585100446428573  C 32.587890625 23.618024553571427  33.57142857142857 21.244419642857146  33.57142857142857 18.464285714285715  C 33.57142857142857 15.684151785714283  32.587890625 13.310546875  30.620814732142854 11.343470982142856  C 28.653738839285715 9.376395089285717  26.280133928571427 8.392857142857144  23.5 8.392857142857144  C 20.719866071428573 8.392857142857144  18.346261160714285 9.376395089285717  16.379185267857142 11.343470982142856  C 14.412109375 13.310546875  13.428571428571427 15.684151785714283  13.428571428571427 18.464285714285715  C 13.428571428571427 21.244419642857146  14.412109375 23.618024553571427  16.379185267857142 25.585100446428573  C 18.346261160714285 27.55217633928571  20.719866071428573 28.53571428571429  23.5 28.53571428571429  C 26.280133928571427 28.53571428571429  28.653738839285715 27.55217633928571  30.620814732142854 25.585100446428573  Z " fill-rule="nonzero" fill="rgba(0, 0, 0, 1)" stroke="none" transform="matrix(1 0 0 1 305 494 )" class="fill" />
    <path d="M 14.372767857142858 1.862165178571428  C 17.27529761904762 0.6207217261904759  20.317708333333336 0  23.5 0  C 26.682291666666668 0  29.724702380952387 0.6207217261904759  32.627232142857146 1.862165178571428  C 35.52976190476191 3.1036086309523796  38.03013392857143 4.7734375  40.128348214285715 6.871651785714284  C 42.22656250000001 8.969866071428573  43.89639136904763 11.470238095238091  45.13783482142857 14.372767857142856  C 46.37927827380953 17.275297619047613  47 20.317708333333332  47 23.5  C 47 26.664806547619047  46.38364955357143 29.698474702380953  45.150948660714285 32.60100446428571  C 43.918247767857146 35.50353422619048  42.25279017857143 38.00390625  40.154575892857146 40.10212053571429  C 38.056361607142854 42.20033482142857  35.555989583333336 43.87453497023809  32.65345982142857 45.124720982142854  C 29.750930059523814 46.37490699404762  26.699776785714285 47  23.5 47  C 20.300223214285715 47  17.249069940476193 46.379278273809526  14.346540178571427 45.13783482142857  C 11.444010416666668 43.89639136904762  8.948009672619047 42.22219122023809  6.858537946428571 40.115234375  C 4.769066220238095 38.008277529761905  3.103608630952381 35.50790550595238  1.8621651785714284 32.61411830357143  C 0.620721726190476 29.72033110119047  0 26.682291666666664  0 23.5  C 0 20.317708333333332  0.620721726190476 17.275297619047613  1.8621651785714284 14.372767857142856  C 3.103608630952381 11.470238095238091  4.7734375 8.969866071428573  6.8716517857142865 6.871651785714284  C 8.969866071428571 4.7734375  11.470238095238097 3.1036086309523796  14.372767857142858 1.862165178571428  Z " stroke-width="0" stroke-dasharray="0" stroke="rgba(255, 255, 255, 0)" fill="none" transform="matrix(1 0 0 1 305 494 )" class="stroke" mask="url(#Clip58)" />
    <path d="M 31.709263392857146 26.857142857142854  C 35.905691964285715 26.857142857142854  38.58091517857143 29.715959821428573  39.734933035714285 35.43359375  C 42.34021577380953 31.849144345238095  43.642857142857146 27.87127976190476  43.642857142857146 23.5  C 43.642857142857146 20.772321428571427  43.109561011904766 18.167038690476186  42.04296875 15.684151785714283  C 40.97637648809524 13.20126488095238  39.54259672619049 11.059337797619042  37.741629464285715 9.258370535714283  C 35.940662202380956 7.457403273809524  33.79873511904762 6.023623511904759  31.315848214285715 4.95703125  C 28.832961309523814 3.8904389880952355  26.227678571428573 3.357142857142856  23.5 3.357142857142856  C 20.772321428571427 3.357142857142856  18.167038690476193 3.8904389880952355  15.684151785714286 4.95703125  C 13.201264880952383 6.023623511904759  11.05933779761905 7.457403273809524  9.258370535714286 9.258370535714283  C 7.4574032738095255 11.059337797619042  6.023623511904762 13.20126488095238  4.95703125 15.684151785714283  C 3.8904389880952386 18.167038690476186  3.3571428571428568 20.772321428571427  3.3571428571428568 23.5  C 3.3571428571428568 27.87127976190476  4.659784226190476 31.849144345238095  7.2650669642857135 35.43359375  C 8.419084821428571 29.715959821428573  11.094308035714286 26.857142857142854  15.290736607142858 26.857142857142854  C 17.581287202380956 29.095238095238095  20.317708333333336 30.21428571428571  23.5 30.21428571428571  C 26.682291666666668 30.21428571428571  29.418712797619047 29.095238095238095  31.709263392857146 26.857142857142854  Z " stroke-width="0" stroke-dasharray="0" stroke="rgba(255, 255, 255, 0)" fill="none" transform="matrix(1 0 0 1 305 494 )" class="stroke" mask="url(#Clip58)" />
    <path d="M 30.620814732142854 25.585100446428573  C 32.587890625 23.618024553571427  33.57142857142857 21.244419642857146  33.57142857142857 18.464285714285715  C 33.57142857142857 15.684151785714283  32.587890625 13.310546875  30.620814732142854 11.343470982142856  C 28.653738839285715 9.376395089285717  26.280133928571427 8.392857142857144  23.5 8.392857142857144  C 20.719866071428573 8.392857142857144  18.346261160714285 9.376395089285717  16.379185267857142 11.343470982142856  C 14.412109375 13.310546875  13.428571428571427 15.684151785714283  13.428571428571427 18.464285714285715  C 13.428571428571427 21.244419642857146  14.412109375 23.618024553571427  16.379185267857142 25.585100446428573  C 18.346261160714285 27.55217633928571  20.719866071428573 28.53571428571429  23.5 28.53571428571429  C 26.280133928571427 28.53571428571429  28.653738839285715 27.55217633928571  30.620814732142854 25.585100446428573  Z " stroke-width="0" stroke-dasharray="0" stroke="rgba(255, 255, 255, 0)" fill="none" transform="matrix(1 0 0 1 305 494 )" class="stroke" mask="url(#Clip58)" />
  </g>
</svg>